<svg id="icon_back_button_20px_enb_rev" xmlns="http://www.w3.org/2000/svg" width="32" height="32" viewBox="0 0 32 32">
  <rect id="Rectangle_752" data-name="Rectangle 752" width="32" height="32" fill="#fff" opacity="0"/>
  <path id="back_-_JioMoney" data-name="back - JioMoney" d="M17.822.453,9.311-8.059l8.483-8.483a.858.858,0,0,0,.253-.632.857.857,0,0,0-.253-.632.937.937,0,0,0-.646-.253.841.841,0,0,0-.618.253L7.373-8.7a.858.858,0,0,0-.253.632.768.768,0,0,0,.253.6L16.53,1.689a1.28,1.28,0,0,0,.309.183.811.811,0,0,0,.309.07.87.87,0,0,0,.337-.07,1.28,1.28,0,0,0,.309-.183.786.786,0,0,0,.281-.6A.921.921,0,0,0,17.822.453Z" transform="translate(3.879 24.059)" fill="#fff"/>
</svg>
